<svg xmlns="http://www.w3.org/2000/svg" width="1418" height="935" viewBox="0 0 1418 935">
    <g fill="#FED925" fill-rule="evenodd" opacity=".2">
        <path d="M1008.747 350.599c3.42-6.377 7.297-13.599 15.471-13.599 8.177 0 12.054 7.222 15.468 13.599 3.529 6.575 5.994 10.567 10.457 10.567 1.577 0 2.857 1.306 2.857 2.915 0 1.61-1.28 2.916-2.857 2.916-8.174 0-12.051-7.225-15.468-13.599-3.526-6.575-5.988-10.567-10.457-10.567-4.462 0-6.93 3.992-10.46 10.57-3.416 6.37-7.293 13.599-15.464 13.599-8.174 0-12.046-7.228-15.465-13.599-3.523-6.575-5.986-10.567-10.449-10.567-4.462 0-6.925 3.992-10.45 10.567-3.418 6.377-7.289 13.599-15.466 13.599-8.17 0-12.042-7.228-15.46-13.599-3.525-6.575-5.987-10.567-10.45-10.567-4.46 0-6.92 3.992-10.44 10.567-3.42 6.37-7.29 13.599-15.46 13.599-8.164 0-12.036-7.228-15.456-13.599-3.522-6.575-5.982-10.567-10.442-10.567s-6.923 3.992-10.445 10.567c-3.417 6.37-7.289 13.599-15.454 13.599-1.58 0-2.857-1.306-2.857-2.916 0-1.61 1.277-2.915 2.857-2.915 4.46 0 6.917-3.992 10.44-10.567 3.417-6.38 7.288-13.602 15.459-13.602s12.04 7.222 15.457 13.599c3.525 6.575 5.982 10.567 10.442 10.567s6.92-3.992 10.442-10.567c3.417-6.377 7.289-13.599 15.457-13.599 8.171 0 12.042 7.222 15.462 13.599 3.523 6.575 5.986 10.567 10.448 10.567 4.463 0 6.929-3.992 10.451-10.567 3.417-6.377 7.291-13.599 15.465-13.599 8.171 0 12.043 7.222 15.465 13.599 3.523 6.575 5.983 10.567 10.449 10.567 4.462 0 6.928-3.992 10.453-10.567M1101.284 520.915c-1.48-7.083-3.152-15.108 3.11-20.362 6.264-5.256 13.876-2.215 20.59.475 6.93 2.768 11.384 4.241 14.803 1.373 1.208-1.014 3.028-.836 4.062.397 1.035 1.233.894 3.056-.314 4.07-6.262 5.254-13.876 2.211-20.59-.475-6.927-2.77-11.38-4.245-14.803-1.373-3.418 2.869-2.744 7.513-1.218 14.82 1.477 7.077 3.153 15.106-3.106 20.358-6.262 5.254-13.873 2.206-20.588-.476-6.925-2.773-11.377-4.247-14.796-1.379-3.419 2.869-2.74 7.51-1.214 14.812 1.481 7.082 3.158 15.103-3.106 20.359-6.259 5.252-13.87 2.203-20.583-.48-6.927-2.771-11.38-4.246-14.798-1.377-3.417 2.866-2.735 7.505-1.205 14.804 1.475 7.08 3.155 15.105-3.102 20.355-6.255 5.249-13.867 2.2-20.581-.482-6.925-2.773-11.375-4.25-14.792-1.382-3.416 2.866-2.737 7.507-1.21 14.808 1.478 7.077 3.159 15.102-3.096 20.351-1.21 1.016-3.029.836-4.063-.397-1.035-1.233-.896-3.055.314-4.07 3.417-2.867 2.733-7.504 1.205-14.805-1.483-7.084-3.16-15.104 3.1-20.357 6.26-5.252 13.865-2.206 20.581.482 6.928 2.77 11.376 4.25 14.792 1.383 3.416-2.867 2.735-7.506 1.207-14.807-1.481-7.081-3.158-15.102 3.1-20.353 6.259-5.252 13.867-2.208 20.585.479 6.925 2.772 11.378 4.247 14.796 1.378 3.419-2.868 2.742-7.511 1.214-14.812-1.481-7.081-3.156-15.104 3.106-20.358 6.26-5.253 13.867-2.208 20.588.476 6.925 2.773 11.375 4.25 14.796 1.379 3.418-2.869 2.741-7.511 1.216-14.814M818.915 608.061c-6.719 2.687-14.33 5.727-20.592.473-6.264-5.256-4.592-13.28-3.108-20.36 1.523-7.304 2.2-11.947-1.219-14.816-1.208-1.013-1.349-2.837-.314-4.07s2.855-1.41 4.063-.397c6.261 5.254 4.587 13.281 3.108 20.36-1.526 7.303-2.205 11.944 1.218 14.816 3.419 2.869 7.875 1.398 14.806-1.373 6.713-2.684 14.33-5.73 20.589-.477 6.261 5.254 4.58 13.28 3.105 20.358-1.527 7.301-2.207 11.942 1.212 14.81 3.419 2.87 7.87 1.394 14.798-1.376 6.716-2.688 14.324-5.733 20.588-.477 6.26 5.253 4.579 13.278 3.101 20.355-1.525 7.303-2.204 11.944 1.214 14.812 3.417 2.867 7.867 1.39 14.79-1.384 6.714-2.682 14.326-5.73 20.583-.48 6.255 5.248 4.575 13.274 3.1 20.352-1.528 7.301-2.21 11.94 1.207 14.807 3.416 2.867 7.869 1.392 14.793-1.38 6.713-2.684 14.325-5.733 20.58-.484 1.21 1.015 1.349 2.837.314 4.07-1.034 1.233-2.852 1.412-4.062.397-3.417-2.867-7.865-1.388-14.79 1.384-6.718 2.69-14.326 5.735-20.585.483-6.26-5.253-4.58-13.272-3.1-20.353 1.526-7.303 2.21-11.94-1.207-14.807-3.416-2.867-7.866-1.39-14.791 1.382-6.717 2.689-14.325 5.733-20.582.482-6.26-5.252-4.583-13.273-3.103-20.356 1.527-7.301 2.207-11.942-1.212-14.81-3.419-2.869-7.873-1.396-14.798 1.376-6.717 2.689-14.327 5.731-20.588.477-6.26-5.252-4.583-13.273-3.106-20.358 1.528-7.301 2.21-11.94-1.212-14.81-3.418-2.87-7.873-1.396-14.8 1.374M1280.117 1034.76c-6.328-1.068-10.574-1.574-11.854.946-1.55 3.044 1.957 8.05 5.347 12.895 4.354 6.222 8.859 12.655 5.753 18.75-3.273 6.435-11.026 5.128-17.863 3.975-6.328-1.065-10.574-1.578-11.86.945-1.55 3.045 1.96 8.051 5.35 12.892 4.354 6.22 8.86 12.656 5.756 18.747-3.273 6.436-11.026 5.13-17.869 3.981-6.319-1.068-10.57-1.577-11.856.946-1.553 3.05 1.954 8.062 5.34 12.906 4.355 6.225 8.857 12.658 5.754 18.761-3.279 6.439-11.032 5.138-17.871 3.984-6.328-1.06-10.577-1.572-11.863.957-.503.988-1.504 1.555-2.537 1.555-.435 0-.879-.1-1.288-.308-1.4-.717-1.96-2.432-1.246-3.833 3.282-6.439 11.032-5.137 17.875-3.984 6.325 1.065 10.571 1.57 11.857-.954 1.552-3.053-1.949-8.062-5.339-12.909-4.357-6.225-8.862-12.658-5.75-18.76 3.276-6.44 11.029-5.135 17.866-3.98 6.33 1.066 10.58 1.573 11.857-.948 1.55-3.038-1.954-8.05-5.347-12.886-4.357-6.225-8.862-12.658-5.757-18.75 3.271-6.436 11.027-5.128 17.864-3.978 6.328 1.065 10.577 1.578 11.854-.945 1.552-3.045-1.954-8.054-5.347-12.895-4.354-6.223-8.86-12.653-5.754-18.75 3.274-6.433 11.024-5.123 17.866-3.975 6.328 1.067 10.572 1.574 11.854-.946 1.55-3.044-1.956-8.05-5.35-12.895-4.353-6.222-8.858-12.655-5.756-18.75.714-1.4 2.423-1.956 3.823-1.244 1.402.715 1.96 2.43 1.245 3.83-1.55 3.045 1.957 8.054 5.347 12.895 4.354 6.222 8.856 12.653 5.754 18.75-3.262 6.436-11.018 5.129-17.855 3.975M1179.117 790.76c-6.328-1.068-10.574-1.574-11.854.946-1.55 3.044 1.957 8.05 5.347 12.895 4.354 6.222 8.859 12.655 5.753 18.75-3.273 6.435-11.026 5.128-17.863 3.975-6.328-1.065-10.574-1.578-11.86.945-1.55 3.045 1.96 8.051 5.35 12.892 4.354 6.22 8.86 12.656 5.756 18.747-3.273 6.436-11.026 5.13-17.869 3.981-6.319-1.068-10.57-1.577-11.856.946-1.553 3.05 1.954 8.062 5.34 12.906 4.355 6.225 8.857 12.658 5.754 18.761-3.279 6.439-11.032 5.138-17.871 3.984-6.328-1.06-10.577-1.572-11.863.957-.503.988-1.504 1.555-2.537 1.555-.435 0-.879-.1-1.288-.308-1.4-.717-1.96-2.432-1.246-3.833 3.282-6.439 11.032-5.137 17.875-3.984 6.325 1.065 10.571 1.57 11.857-.954 1.552-3.053-1.949-8.062-5.339-12.909-4.357-6.225-8.862-12.658-5.75-18.76 3.276-6.44 11.029-5.135 17.866-3.98 6.33 1.066 10.58 1.573 11.857-.948 1.55-3.038-1.954-8.05-5.347-12.886-4.357-6.225-8.862-12.658-5.757-18.75 3.271-6.436 11.027-5.128 17.864-3.978 6.328 1.065 10.577 1.578 11.854-.945 1.552-3.045-1.954-8.054-5.347-12.895-4.354-6.223-8.86-12.653-5.754-18.75 3.274-6.433 11.024-5.123 17.866-3.975 6.328 1.067 10.572 1.574 11.854-.946 1.55-3.044-1.956-8.05-5.35-12.895-4.353-6.222-8.858-12.655-5.756-18.75.714-1.4 2.423-1.956 3.823-1.244 1.402.715 1.96 2.43 1.245 3.83-1.55 3.045 1.957 8.054 5.347 12.895 4.354 6.222 8.856 12.653 5.754 18.75-3.262 6.436-11.018 5.129-17.855 3.975M1006.035 1132.213c-4.844-3.39-9.85-6.896-12.895-5.346-1.4.71-3.115.156-3.83-1.243-.712-1.4-.157-3.111 1.245-3.825 6.097-3.103 12.53 1.402 18.75 5.756 4.843 3.39 9.85 6.896 12.894 5.346 2.518-1.282 2.008-5.528.946-11.853-1.148-6.84-2.458-14.589 3.975-17.865 6.097-3.103 12.527 1.402 18.75 5.756 4.844 3.39 9.85 6.9 12.895 5.35 2.52-1.289 2.01-5.532.945-11.857-1.153-6.84-2.458-14.589 3.978-17.865 6.092-3.103 12.525 1.402 18.75 5.759 4.839 3.39 9.848 6.896 12.886 5.346 2.524-1.282 2.017-5.528.949-11.856-1.154-6.84-2.452-14.592 3.978-17.868 6.103-3.105 12.536 1.397 18.761 5.75 4.85 3.39 9.856 6.894 12.91 5.341 2.522-1.288 2.015-5.537.953-11.859-1.153-6.842-2.455-14.594 3.984-17.87 1.401-.711 3.119-.157 3.833 1.242.208.416.308.854.308 1.289 0 1.035-.567 2.033-1.555 2.536-2.529 1.283-2.016 5.535-.957 11.862 1.15 6.84 2.452 14.59-3.984 17.871-6.103 3.106-12.536-1.396-18.761-5.75-4.847-3.39-9.856-6.894-12.903-5.341-2.526 1.283-2.017 5.528-.949 11.856 1.15 6.84 2.45 14.592-3.98 17.865-6.092 3.106-12.528-1.402-18.748-5.756-4.841-3.39-9.847-6.896-12.892-5.346-2.523 1.282-2.01 5.525-.945 11.853 1.153 6.84 2.455 14.589-3.976 17.868-6.097 3.103-12.53-1.402-18.75-5.759-4.843-3.39-9.85-6.896-12.894-5.346-2.52 1.28-2.01 5.52-.946 11.853 1.154 6.842 2.46 14.592-3.975 17.865-6.094 3.103-12.53-1.402-18.75-5.759M911.624 198.137c-1.531-5.71-3.113-11.615-6.44-12.384-1.531-.356-2.488-1.883-2.136-3.414.354-1.53 1.88-2.484 3.412-2.13 6.665 1.542 8.697 9.128 10.663 16.461 1.532 5.71 3.113 11.615 6.441 12.384 2.753.636 5.092-2.944 8.344-8.472 3.517-5.977 7.495-12.756 14.529-11.13 6.665 1.542 8.695 9.126 10.663 16.461 1.532 5.71 3.111 11.617 6.44 12.387 2.758.633 5.095-2.945 8.345-8.475 3.513-5.98 7.495-12.755 14.53-11.128 6.661 1.539 8.694 9.125 10.662 16.464 1.528 5.706 3.111 11.612 6.435 12.378 2.757.64 5.098-2.939 8.347-8.472 3.513-5.981 7.502-12.754 14.533-11.13 6.672 1.543 8.706 9.127 10.676 16.464 1.536 5.714 3.12 11.616 6.456 12.389 2.76.635 5.104-2.946 8.354-8.472 3.514-5.983 7.5-12.758 14.539-11.129 1.53.356 2.489 1.885 2.137 3.416-.107.452-.313.852-.592 1.185-.666.793-1.741 1.193-2.822.944-2.762-.643-5.102 2.943-8.358 8.471-3.515 5.98-7.499 12.752-14.539 11.13-6.67-1.545-8.705-9.128-10.675-16.465-1.534-5.713-3.12-11.616-6.452-12.386-2.76-.64-5.098 2.94-8.347 8.473-3.515 5.979-7.504 12.752-14.534 11.127-6.662-1.537-8.695-9.127-10.66-16.46-1.53-5.709-3.112-11.613-6.44-12.382-2.757-.64-5.092 2.94-8.343 8.472-3.513 5.98-7.497 12.754-14.531 11.132-6.665-1.542-8.698-9.128-10.661-16.463-1.532-5.711-3.113-11.615-6.442-12.385-2.753-.64-5.088 2.937-8.343 8.473-3.515 5.983-7.495 12.76-14.53 11.13-6.662-1.54-8.697-9.128-10.66-16.464M890.376 1013.137c1.531-5.71 3.113-11.615 6.44-12.384 1.531-.356 2.488-1.883 2.136-3.414-.354-1.53-1.88-2.484-3.412-2.13-6.665 1.542-8.697 9.128-10.663 16.461-1.532 5.71-3.113 11.615-6.441 12.384-2.753.636-5.092-2.944-8.344-8.472-3.517-5.977-7.495-12.756-14.529-11.13-6.665 1.542-8.695 9.126-10.663 16.461-1.532 5.71-3.111 11.617-6.44 12.387-2.758.633-5.095-2.945-8.345-8.475-3.513-5.98-7.495-12.755-14.53-11.128-6.661 1.539-8.694 9.125-10.662 16.464-1.528 5.706-3.111 11.612-6.435 12.378-2.757.64-5.098-2.939-8.347-8.472-3.513-5.981-7.502-12.754-14.533-11.13-6.672 1.543-8.706 9.127-10.676 16.464-1.536 5.714-3.12 11.616-6.456 12.389-2.76.635-5.104-2.946-8.354-8.472-3.514-5.983-7.5-12.758-14.539-11.129-1.53.356-2.489 1.885-2.137 3.416.107.452.313.852.592 1.185.666.793 1.741 1.193 2.822.944 2.762-.643 5.102 2.943 8.358 8.471 3.515 5.98 7.499 12.752 14.539 11.13 6.67-1.545 8.705-9.128 10.675-16.465 1.534-5.713 3.12-11.616 6.452-12.386 2.76-.64 5.098 2.94 8.347 8.473 3.515 5.979 7.504 12.752 14.534 11.127 6.662-1.537 8.695-9.127 10.66-16.46 1.53-5.709 3.112-11.613 6.44-12.382 2.757-.64 5.092 2.94 8.343 8.472 3.513 5.98 7.497 12.754 14.531 11.132 6.665-1.542 8.698-9.128 10.661-16.463 1.532-5.711 3.113-11.615 6.442-12.385 2.753-.64 5.088 2.937 8.343 8.473 3.515 5.983 7.495 12.76 14.53 11.13 6.662-1.54 8.697-9.128 10.66-16.464" transform="translate(-4 -279)"/>
        <path d="M1326 400.736L1304 389 1304 395.528 1319.882 404 1304 412.472 1304 419 1326 407.264z" transform="translate(-4 -279) rotate(-60 1315 404)"/>
        <path d="M866 510.736L844 499 844 505.528 859.882 514 844 522.472 844 529 866 517.264z" transform="translate(-4 -279) rotate(-90 855 514)"/>
        <path d="M803 814.736L781 803 781 809.528 796.882 818 781 826.472 781 833 803 821.264z" transform="translate(-4 -279) rotate(150 792 818)"/>
        <path d="M707 1144.736L685 1133 685 1139.528 700.882 1148 685 1156.472 685 1163 707 1151.264z" transform="translate(-4 -279) rotate(150 696 1148)"/>
        <path d="M1192 972.736L1170 961 1170 967.528 1185.882 976 1170 984.472 1170 991 1192 979.264z" transform="translate(-4 -279) rotate(135 1181 976)"/>
        <path d="M1152 311.736L1130 300 1130 306.528 1145.882 315 1130 323.472 1130 330 1152 318.264z" transform="translate(-4 -279) rotate(-45 1141 315)"/>
        <path d="M1281 510.736L1259 499 1259 505.528 1274.882 514 1259 522.472 1259 529 1281 517.264z" transform="translate(-4 -279) rotate(45 1270 514)"/>
        <path d="M1322 728.736L1300 717 1300 723.528 1315.882 732 1300 740.472 1300 747 1322 735.264z" transform="translate(-4 -279) rotate(-45 1311 732)"/>
        <path d="M1387 603.736L1365 592 1365 598.528 1380.882 607 1365 615.472 1365 622 1387 610.264z" transform="translate(-4 -279) rotate(-45 1376 607)"/>
        <path d="M1026 679.736L1004 668 1004 674.528 1019.882 683 1004 691.472 1004 698 1026 686.264z" transform="translate(-4 -279) rotate(45 1015 683)"/>
        <path d="M941 799.736L919 788 919 794.528 934.882 803 919 811.472 919 818 941 806.264z" transform="translate(-4 -279) rotate(45 930 803)"/>
        <path d="M1089 945.736L1067 934 1067 940.528 1082.882 949 1067 957.472 1067 964 1089 952.264z" transform="translate(-4 -279) rotate(45 1078 949)"/>
        <path d="M1101 1182.736L1079 1171 1079 1177.528 1094.882 1186 1079 1194.472 1079 1201 1101 1189.264z" transform="translate(-4 -279) rotate(-45 1090 1186)"/>
        <path d="M1288 1118.736L1266 1107 1266 1113.528 1281.882 1122 1266 1130.472 1266 1137 1288 1125.264z" transform="translate(-4 -279) rotate(-45 1277 1122)"/>
        <path d="M1254 881.736L1232 870 1232 876.528 1247.882 885 1232 893.472 1232 900 1254 888.264z" transform="translate(-4 -279) rotate(-45 1243 885)"/>
        <path d="M1160 640.736L1138 629 1138 635.528 1153.882 644 1138 652.472 1138 659 1160 647.264z" transform="translate(-4 -279) rotate(-45 1149 644)"/>
        <path d="M1337 291.029c0 1.326.817 2.547 2.062 2.913l13.399 3.949c1.494.444 3.03-.505 3.442-2.118.4-1.617-.473-3.273-1.962-3.71l-13.401-3.956c-1.494-.438-3.03.508-3.44 2.118-.07.272-.1.538-.1.804M1213 285.029c0 1.326.817 2.547 2.062 2.913l13.399 3.949c1.494.444 3.03-.505 3.442-2.118.4-1.617-.473-3.273-1.962-3.71l-13.401-3.956c-1.494-.438-3.03.508-3.44 2.118-.07.272-.1.538-.1.804M906 291.029c0 1.326.817 2.547 2.062 2.913l13.399 3.949c1.494.444 3.03-.505 3.442-2.118.4-1.617-.473-3.273-1.962-3.71l-13.401-3.956c-1.494-.438-3.03.508-3.44 2.118-.07.272-.1.538-.1.804M1403 388.029c0 1.326.817 2.547 2.062 2.913l13.399 3.949c1.494.444 3.03-.505 3.442-2.118.4-1.617-.473-3.273-1.962-3.71l-13.401-3.956c-1.494-.438-3.03.508-3.44 2.118-.07.272-.1.538-.1.804M1328 564.029c0 1.326.817 2.547 2.062 2.913l13.399 3.949c1.494.444 3.03-.505 3.442-2.118.4-1.617-.473-3.273-1.962-3.71l-13.401-3.956c-1.494-.438-3.03.508-3.44 2.118-.07.272-.1.538-.1.804M1313 785.029c0 1.326.817 2.547 2.062 2.913l13.399 3.949c1.494.444 3.03-.505 3.442-2.118.4-1.617-.473-3.273-1.962-3.71l-13.401-3.956c-1.494-.438-3.03.508-3.44 2.118-.07.272-.1.538-.1.804M779.543 358.213c1.149-.663 1.797-1.981 1.491-3.243l-3.28-13.578c-.362-1.516-1.951-2.372-3.554-1.921-1.6.461-2.598 2.045-2.233 3.554l3.276 13.583c.367 1.513 1.955 2.37 3.554 1.92.27-.076.516-.182.746-.315M1338.247 995.899c-.454 1.246-.103 2.672.942 3.442l11.24 8.293c1.252.929 3.02.563 3.959-.813.929-1.382.674-3.236-.575-4.157l-11.24-8.3c-1.255-.923-3.022-.56-3.956.814-.16.231-.279.47-.37.72M868.043 1222.242c1.149.663 2.614.566 3.554-.33l10.119-9.629c1.132-1.072 1.078-2.877-.113-4.04-1.2-1.155-3.07-1.226-4.195-.156l-10.125 9.628c-1.127 1.075-1.076 2.879.114 4.038.2.196.416.356.646.489M1097.543 408.213c1.149-.663 1.797-1.981 1.491-3.243l-3.28-13.578c-.362-1.516-1.951-2.372-3.554-1.921-1.6.461-2.598 2.045-2.233 3.554l3.276 13.583c.367 1.513 1.955 2.37 3.554 1.92.27-.076.516-.182.746-.315M1073.247 444.899c-.454 1.246-.103 2.672.942 3.442l11.24 8.293c1.252.929 3.02.563 3.959-.813.929-1.382.674-3.236-.575-4.157l-11.24-8.3c-1.255-.923-3.022-.56-3.956.814-.16.231-.279.47-.37.72M777.247 717.899c-.454 1.246-.103 2.672.942 3.442l11.24 8.293c1.252.929 3.02.563 3.959-.813.929-1.382.674-3.236-.575-4.157l-11.24-8.3c-1.255-.923-3.022-.56-3.956.814-.16.231-.279.47-.37.72M1186.043 502.242c1.149.663 2.614.566 3.554-.33l10.119-9.629c1.132-1.072 1.078-2.877-.113-4.04-1.2-1.155-3.07-1.226-4.195-.156l-10.125 9.628c-1.127 1.075-1.076 2.879.114 4.038.2.196.416.356.646.489M926 640.029c0 1.326.817 2.547 2.062 2.913l13.399 3.949c1.494.444 3.03-.505 3.442-2.118.4-1.617-.473-3.273-1.962-3.71l-13.401-3.956c-1.494-.438-3.03.508-3.44 2.118-.07.272-.1.538-.1.804M976 878.029c0 1.326.817 2.547 2.062 2.913l13.399 3.949c1.494.444 3.03-.505 3.442-2.118.4-1.617-.473-3.273-1.962-3.71l-13.401-3.956c-1.494-.438-3.03.508-3.44 2.118-.07.272-.1.538-.1.804M765 953.029c0 1.326.817 2.547 2.062 2.913l13.399 3.949c1.494.444 3.03-.505 3.442-2.118.4-1.617-.473-3.273-1.962-3.71l-13.401-3.956c-1.494-.438-3.03.508-3.44 2.118-.07.272-.1.538-.1.804M1046.543 747.213c1.149-.663 1.797-1.981 1.491-3.243l-3.28-13.578c-.362-1.516-1.951-2.372-3.554-1.921-1.6.461-2.598 2.045-2.233 3.554l3.276 13.583c.367 1.513 1.955 2.37 3.554 1.92.27-.076.516-.182.746-.315M1056.247 834.899c-.454 1.246-.103 2.672.942 3.442l11.24 8.293c1.252.929 3.02.563 3.959-.813.929-1.382.674-3.236-.575-4.157l-11.24-8.3c-1.255-.923-3.022-.56-3.956.814-.16.231-.279.47-.37.72M887.247 918.899c-.454 1.246-.103 2.672.942 3.442l11.24 8.293c1.252.929 3.02.563 3.959-.813.929-1.382.674-3.236-.575-4.157l-11.24-8.3c-1.255-.923-3.022-.56-3.956.814-.16.231-.279.47-.37.72M1203.043 1222.242c1.149.663 2.614.566 3.554-.33l10.119-9.629c1.132-1.072 1.078-2.877-.113-4.04-1.2-1.155-3.07-1.226-4.195-.156l-10.125 9.628c-1.127 1.075-1.076 2.879.114 4.038.2.196.416.356.646.489M787.043 1112.242c1.149.663 2.614.566 3.554-.33l10.119-9.629c1.132-1.072 1.078-2.877-.113-4.04-1.2-1.155-3.07-1.226-4.195-.156l-10.125 9.628c-1.127 1.075-1.076 2.879.114 4.038.2.196.416.356.646.489" transform="translate(-4 -279)"/>
        <path d="M994 1074.736L972 1063 972 1069.528 987.882 1078 972 1086.472 972 1093 994 1081.264z" transform="translate(-4 -279) rotate(75 983 1078)"/>
        <path d="M1017.043 1011.242c1.149.663 2.614.566 3.554-.33l10.119-9.629c1.132-1.072 1.078-2.877-.113-4.04-1.2-1.155-3.07-1.226-4.195-.156l-10.125 9.628c-1.127 1.075-1.076 2.879.114 4.038.2.196.416.356.646.489M1241.399 445.253c1.246.454 2.672.103 3.442-.942l8.293-11.24c.929-1.252.563-3.02-.813-3.959-1.382-.929-3.236-.674-4.157.575l-8.3 11.24c-.923 1.255-.56 3.022.814 3.956.231.16.47.279.72.37M1375.399 453.253c1.246.454 2.672.103 3.442-.942l8.293-11.24c.929-1.252.563-3.02-.813-3.959-1.382-.929-3.236-.674-4.157.575l-8.3 11.24c-.923 1.255-.56 3.022.814 3.956.231.16.47.279.72.37M1248.043 561.242c1.149.663 2.614.566 3.554-.33l10.119-9.629c1.132-1.072 1.078-2.877-.113-4.04-1.2-1.155-3.07-1.226-4.195-.156l-10.125 9.628c-1.127 1.075-1.076 2.879.114 4.038.2.196.416.356.646.489M1248.043 663.242c1.149.663 2.614.566 3.554-.33l10.119-9.629c1.132-1.072 1.078-2.877-.113-4.04-1.2-1.155-3.07-1.226-4.195-.156l-10.125 9.628c-1.127 1.075-1.076 2.879.114 4.038.2.196.416.356.646.489M1218.043 805.242c1.149.663 2.614.566 3.554-.33l10.119-9.629c1.132-1.072 1.078-2.877-.113-4.04-1.2-1.155-3.07-1.226-4.195-.156l-10.125 9.628c-1.127 1.075-1.076 2.879.114 4.038.2.196.416.356.646.489M1269.043 941.242c1.149.663 2.614.566 3.554-.33l10.119-9.629c1.132-1.072 1.078-2.877-.113-4.04-1.2-1.155-3.07-1.226-4.195-.156l-10.125 9.628c-1.127 1.075-1.076 2.879.114 4.038.2.196.416.356.646.489M932.043 474.242c1.149.663 2.614.566 3.554-.33l10.119-9.629c1.132-1.072 1.078-2.877-.113-4.04-1.2-1.155-3.07-1.226-4.195-.156l-10.125 9.628c-1.127 1.075-1.076 2.879.114 4.038.2.196.416.356.646.489M239.218 359.898c2.617-6.746 5.585-14.387 13.698-15.383 8.116-.997 12.844 5.7 17.01 11.612 4.303 6.096 7.237 9.758 11.666 9.214 1.566-.192 2.995.948 3.192 2.546.196 1.597-.916 3.05-2.48 3.242-8.114.996-12.843-5.703-17.01-11.613-4.301-6.096-7.232-9.758-11.667-9.213-4.43.544-6.393 4.806-9.094 11.765-2.615 6.74-5.582 14.387-13.692 15.383-8.113.996-12.837-5.707-17.007-11.613-4.298-6.097-7.23-9.759-11.659-9.215-4.429.544-6.387 4.806-9.085 11.762-2.614 6.745-5.577 14.386-13.692 15.382-8.11.996-12.834-5.707-17.002-11.614-4.3-6.096-7.231-9.758-11.66-9.214-4.427.544-6.382 4.805-9.075 11.76-2.618 6.74-5.58 14.387-13.687 15.382-8.104.995-12.827-5.707-16.998-11.614-4.298-6.097-7.226-9.759-11.653-9.215-4.426.543-6.384 4.805-9.08 11.76-2.614 6.74-5.576 14.386-13.68 15.382-1.569.192-2.995-.949-3.191-2.546-.197-1.598.912-3.05 2.48-3.242 4.427-.544 6.379-4.805 9.074-11.76 2.614-6.75 5.576-14.39 13.686-15.385 8.11-.996 12.83 5.701 17 11.614 4.3 6.096 7.225 9.759 11.651 9.215 4.427-.543 6.382-4.805 9.077-11.76 2.615-6.746 5.577-14.386 13.684-15.382 8.11-.996 12.833 5.701 17.005 11.614 4.297 6.096 7.228 9.758 11.658 9.214 4.429-.544 6.39-4.806 9.085-11.761 2.614-6.746 5.58-14.387 13.692-15.383 8.11-.996 12.833 5.701 17.008 11.613 4.297 6.097 7.225 9.759 11.658 9.215 4.429-.544 6.39-4.807 9.088-11.762M351.82 517.667c-2.33-6.85-4.969-14.611.606-20.59 5.577-5.98 13.503-3.89 20.495-2.037 7.215 1.903 11.816 2.822 14.86-.441 1.075-1.154 2.903-1.2 4.08-.101 1.177 1.097 1.26 2.924.184 4.078-5.575 5.978-13.503 3.886-20.495 2.038-7.213-1.906-11.812-2.827-14.86.44-3.043 3.265-1.807 7.792.598 14.859 2.329 6.844 4.97 14.609-.602 20.585-5.575 5.978-13.501 3.88-20.493 2.036-7.21-1.908-11.81-2.83-14.853.435-3.044 3.263-1.804 7.787.6 14.85 2.333 6.847 4.975 14.604-.601 20.584-5.573 5.976-13.5 3.878-20.49 2.032-7.212-1.906-11.811-2.827-14.855.437-3.042 3.262-1.8 7.783.608 14.842 2.327 6.846 4.973 14.606-.597 20.58-5.57 5.972-13.496 3.874-20.487 2.03-7.211-1.908-11.808-2.831-14.85.43-3.042 3.262-1.802 7.786.604 14.846 2.33 6.844 4.975 14.605-.593 20.577-1.078 1.155-2.904 1.199-4.081.1-1.177-1.097-1.262-2.922-.184-4.077 3.041-3.262 1.798-7.781-.608-14.842-2.336-6.85-4.978-14.606.595-20.582 5.573-5.976 13.493-3.88 20.487-2.03 7.213 1.906 11.808 2.831 14.85-.43 3.041-3.262 1.8-7.784-.607-14.844-2.333-6.848-4.975-14.605.596-20.579 5.573-5.976 13.495-3.882 20.491-2.034 7.211 1.908 11.81 2.83 14.854-.435 3.043-3.263 1.805-7.789-.6-14.85-2.334-6.847-4.974-14.606.6-20.584 5.573-5.976 13.496-3.882 20.493-2.036 7.212 1.907 11.809 2.83 14.854-.435 3.044-3.264 1.806-7.79-.598-14.852M82.177 638.576c-6.341 3.485-13.526 7.43-20.381 2.979-6.858-4.454-6.176-12.622-5.566-19.83.622-7.436.728-12.126-3.015-14.557-1.323-.859-1.685-2.651-.808-4.001.876-1.35 2.661-1.748 3.984-.89 6.855 4.452 6.172 12.624 5.566 19.83-.624 7.435-.733 12.124 3.015 14.557 3.742 2.43 7.987.428 14.528-3.167 6.336-3.482 13.524-7.433 20.377-2.983 6.855 4.452 6.165 12.623 5.564 19.828-.627 7.433-.735 12.122 3.007 14.553 3.743 2.43 7.982.424 14.52-3.17 6.339-3.487 13.52-7.436 20.377-2.982 6.853 4.45 6.163 12.62 5.559 19.824-.625 7.435-.733 12.124 3.01 14.554 3.74 2.43 7.977.422 14.51-3.176 6.338-3.48 13.521-7.434 20.372-2.985 6.848 4.447 6.158 12.618 5.556 19.823-.626 7.433-.737 12.12 3.003 14.55 3.74 2.429 7.98.422 14.515-3.173 6.336-3.482 13.52-7.436 20.367-2.989 1.325.86 1.685 2.652.808 4.002-.876 1.35-2.659 1.75-3.984.889-3.74-2.43-7.975-.42-14.51 3.176-6.34 3.49-13.52 7.438-20.374 2.988-6.852-4.45-6.163-12.615-5.556-19.824.624-7.434.738-12.12-3.003-14.549-3.74-2.429-7.977-.42-14.513 3.175-6.338 3.487-13.519 7.435-20.369 2.987-6.853-4.45-6.166-12.616-5.561-19.827.626-7.433.735-12.122-3.008-14.552-3.742-2.43-7.984-.426-14.52 3.17-6.338 3.487-13.521 7.434-20.376 2.982-6.853-4.45-6.166-12.616-5.564-19.828.627-7.433.738-12.12-3.008-14.553-3.742-2.43-7.984-.425-14.522 3.169M600.776 1012.497c-6.15-1.83-10.304-2.851-11.88-.506-1.91 2.833.96 8.23 3.734 13.45 3.564 6.707 7.251 13.641 3.426 19.312-4.033 5.989-11.57 3.747-18.215 1.769-6.15-1.829-10.303-2.855-11.886-.507-1.91 2.832.964 8.23 3.739 13.447 3.563 6.704 7.25 13.641 3.428 19.31-4.033 5.988-11.569 3.746-18.22 1.773-6.143-1.83-10.3-2.854-11.884-.507-1.913 2.838.957 8.24 3.728 13.461 3.563 6.71 7.248 13.644 3.424 19.323-4.039 5.991-11.575 3.754-18.224 1.776-6.151-1.823-10.306-2.85-11.89-.496-.62.92-1.683 1.36-2.708 1.234-.432-.053-.86-.206-1.24-.462-1.302-.883-1.65-2.653-.77-3.956 4.042-5.991 11.576-3.755 18.227-1.776 6.148 1.828 10.3 2.845 11.884.498 1.914-2.841-.95-8.24-3.725-13.464-3.566-6.71-7.253-13.644-3.421-19.322 4.036-5.991 11.572-3.752 18.218-1.771 6.153 1.829 10.309 2.85 11.883.504 1.91-2.827-.958-8.23-3.736-13.442-3.566-6.71-7.253-13.644-3.428-19.312 4.03-5.99 11.569-3.747 18.215-1.771 6.15 1.828 10.305 2.855 11.88.506 1.912-2.833-.958-8.232-3.735-13.45-3.564-6.707-7.251-13.638-3.426-19.312 4.033-5.986 11.566-3.741 18.218-1.768 6.15 1.831 10.3 2.851 11.88.506 1.91-2.833-.96-8.23-3.738-13.45-3.563-6.707-7.25-13.641-3.428-19.312.88-1.304 2.643-1.647 3.945-.77 1.305.88 1.65 2.65.77 3.954-1.91 2.833.96 8.232 3.735 13.45 3.564 6.707 7.249 13.638 3.426 19.311-4.022 5.99-11.56 3.748-18.206 1.77M470.792 782.625c-6.15-1.831-10.303-2.852-11.88-.506-1.91 2.832.96 8.229 3.735 13.45 3.564 6.707 7.25 13.64 3.426 19.311-4.034 5.99-11.57 3.747-18.215 1.77-6.15-1.83-10.303-2.855-11.886-.508-1.91 2.833.964 8.23 3.738 13.448 3.564 6.704 7.251 13.64 3.43 19.309-4.034 5.989-11.57 3.747-18.222 1.774-6.142-1.83-10.3-2.855-11.883-.507-1.913 2.838.956 8.24 3.728 13.46 3.563 6.71 7.248 13.644 3.424 19.323-4.04 5.992-11.576 3.755-18.224 1.777-6.152-1.823-10.306-2.85-11.89-.496-.62.92-1.683 1.36-2.708 1.234-.432-.053-.86-.206-1.241-.462-1.302-.883-1.649-2.653-.77-3.957 4.043-5.99 11.576-3.754 18.227-1.776 6.149 1.828 10.302 2.846 11.885.498 1.913-2.84-.951-8.24-3.725-13.463-3.566-6.71-7.253-13.644-3.421-19.322 4.036-5.992 11.572-3.752 18.217-1.772 6.154 1.83 10.31 2.85 11.884.504 1.909-2.827-.958-8.229-3.736-13.442-3.566-6.71-7.254-13.644-3.429-19.311 4.03-5.99 11.57-3.747 18.215-1.772 6.151 1.828 10.306 2.855 11.88.506 1.913-2.832-.957-8.231-3.734-13.45-3.564-6.707-7.252-13.638-3.426-19.311 4.033-5.986 11.566-3.742 18.217-1.769 6.151 1.831 10.3 2.852 11.881.507 1.91-2.833-.96-8.23-3.738-13.451-3.564-6.707-7.25-13.64-3.428-19.312.879-1.303 2.643-1.646 3.945-.769 1.305.88 1.649 2.65.77 3.954-1.91 2.832.96 8.232 3.735 13.45 3.563 6.706 7.248 13.637 3.426 19.311-4.023 5.99-11.561 3.748-18.207 1.77M331.78 1136.017c-5.22-2.775-10.617-5.645-13.45-3.736-1.304.877-3.073.535-3.953-.766-.877-1.302-.535-3.07.77-3.948 5.673-3.823 12.607-.136 19.31 3.428 5.222 2.774 10.618 5.644 13.45 3.735 2.343-1.58 1.32-5.732-.505-11.88-1.973-6.649-4.218-14.181 1.768-18.217 5.674-3.822 12.605-.135 19.312 3.428 5.22 2.775 10.618 5.648 13.45 3.738 2.345-1.586 1.322-5.735-.506-11.883-1.978-6.648-4.217-14.18 1.771-18.217 5.668-3.821 12.602-.134 19.312 3.431 5.216 2.775 10.615 5.645 13.442 3.737 2.348-1.581 1.327-5.733-.504-11.884-1.978-6.648-4.212-14.184 1.771-18.22 5.68-3.826 12.613-.141 19.323 3.422 5.226 2.773 10.622 5.64 13.463 3.727 2.348-1.586 1.327-5.741-.498-11.886-1.979-6.651-4.215-14.187 1.776-18.224 1.304-.876 3.076-.535 3.956.767.257.387.41.81.463 1.24.126 1.028-.315 2.088-1.235 2.708-2.353 1.581-1.326 5.739.496 11.89 1.976 6.649 4.212 14.182-1.776 18.223-5.679 3.826-12.613.142-19.322-3.42-5.224-2.775-10.623-5.642-13.458-3.73-2.351 1.582-1.328 5.734.503 11.884 1.976 6.648 4.21 14.185-1.774 18.217-5.667 3.825-12.605.136-19.309-3.428-5.218-2.775-10.614-5.645-13.447-3.736-2.348 1.581-1.322 5.73.506 11.88 1.978 6.649 4.215 14.182-1.768 18.22-5.674 3.822-12.608.135-19.312-3.431-5.221-2.774-10.618-5.644-13.45-3.735-2.346 1.577-1.323 5.724.506 11.88 1.979 6.65 4.22 14.183-1.769 18.216-5.67 3.823-12.607.136-19.312-3.43M124.238 220.409c-2.216-5.482-4.505-11.149-7.902-11.507-1.563-.167-2.698-1.566-2.536-3.129.165-1.56 1.563-2.694 3.127-2.53 6.803.719 9.745 8 12.59 15.04 2.216 5.48 4.505 11.148 7.903 11.506 2.81.296 4.695-3.543 7.248-9.426 2.763-6.36 5.885-13.573 13.065-12.817 6.803.718 9.742 7.998 12.59 15.039 2.216 5.481 4.503 11.151 7.9 11.51 2.816.291 4.7-3.545 7.25-9.43 2.759-6.363 5.885-13.573 13.067-12.815 6.799.715 9.74 7.997 12.589 15.041 2.211 5.478 4.503 11.147 7.895 11.502 2.815.299 4.702-3.538 7.253-9.426 2.758-6.365 5.89-13.574 13.068-12.819 6.81.72 9.753 7.999 12.603 15.04 2.22 5.485 4.511 11.15 7.917 11.51 2.818.294 4.707-3.545 7.26-9.426 2.758-6.366 5.89-13.577 13.074-12.817 1.562.166 2.7 1.567 2.537 3.13-.051.461-.206.883-.443 1.247-.564.869-1.583 1.397-2.686 1.281-2.82-.302-4.705 3.543-7.263 9.427-2.76 6.363-5.89 13.57-13.074 12.818-6.81-.72-9.753-7.999-12.603-15.04-2.219-5.484-4.511-11.15-7.913-11.508-2.817-.3-4.702 3.539-7.252 9.427-2.76 6.363-5.894 13.572-13.07 12.815-6.8-.713-9.742-7.999-12.587-15.038-2.214-5.48-4.503-11.147-7.9-11.505-2.815-.299-4.696 3.54-7.249 9.426-2.757 6.364-5.887 13.572-13.065 12.82-6.804-.718-9.746-8-12.589-15.042-2.216-5.48-4.505-11.148-7.902-11.506-2.811-.3-4.693 3.534-7.25 9.426-2.758 6.366-5.883 13.577-13.063 12.817-6.801-.717-9.745-8-12.589-15.041M204.388 1049.077c2.216-5.482 4.505-11.149 7.902-11.507 1.563-.167 2.698-1.566 2.536-3.129-.165-1.56-1.563-2.694-3.127-2.53-6.803.719-9.745 8-12.59 15.04-2.216 5.48-4.505 11.148-7.903 11.506-2.81.296-4.695-3.543-7.248-9.426-2.763-6.36-5.885-13.574-13.065-12.817-6.803.718-9.742 7.998-12.59 15.039-2.216 5.481-4.503 11.151-7.9 11.51-2.816.291-4.7-3.545-7.25-9.43-2.759-6.363-5.885-13.573-13.067-12.815-6.799.715-9.74 7.997-12.589 15.041-2.211 5.478-4.503 11.147-7.895 11.502-2.815.299-4.702-3.538-7.253-9.426-2.758-6.365-5.89-13.574-13.068-12.819-6.81.72-9.753 7.999-12.603 15.04-2.22 5.485-4.511 11.15-7.917 11.51-2.818.294-4.707-3.545-7.26-9.426-2.758-6.366-5.89-13.577-13.074-12.817-1.562.166-2.7 1.567-2.537 3.13.051.46.206.882.443 1.247.564.869 1.583 1.397 2.686 1.281 2.82-.302 4.705 3.543 7.263 9.427 2.76 6.363 5.89 13.57 13.074 12.818 6.81-.72 9.753-7.999 12.603-15.04 2.219-5.484 4.511-11.15 7.913-11.508 2.817-.3 4.702 3.539 7.252 9.427 2.76 6.363 5.894 13.572 13.07 12.815 6.8-.713 9.742-7.999 12.587-15.038 2.214-5.48 4.503-11.147 7.9-11.505 2.815-.299 4.696 3.54 7.249 9.426 2.757 6.364 5.887 13.572 13.065 12.82 6.804-.719 9.746-8 12.589-15.042 2.216-5.48 4.505-11.148 7.902-11.506 2.811-.3 4.693 3.534 7.25 9.426 2.758 6.366 5.883 13.577 13.063 12.817 6.801-.717 9.745-8 12.589-15.041" transform="translate(-4 -279)"/>
        <path d="M560.695 372.314L538.695 360.578 538.695 367.106 554.577 375.578 538.695 384.05 538.695 390.578 560.695 378.842z" transform="translate(-4 -279) rotate(-67 549.695 375.578)"/>
        <path d="M117.53 537.554L95.53 525.818 95.53 532.346 111.412 540.818 95.53 549.29 95.53 555.818 117.53 544.082z" transform="translate(-4 -279) rotate(-97 106.53 540.818)"/>
        <path d="M92.048 846.966L70.048 835.23 70.048 841.757 85.93 850.23 70.048 858.702 70.048 865.23 92.048 853.493z" transform="translate(-4 -279) rotate(143 81.048 850.23)"/>
        <path d="M36.98 1186.206L14.98 1174.469 14.98 1180.997 30.862 1189.469 14.98 1197.942 14.98 1204.469 36.98 1192.733z" transform="translate(-4 -279) rotate(143 25.98 1189.47)"/>
        <path d="M497.404 956.381L475.404 944.645 475.404 951.173 491.285 959.645 475.404 968.117 475.404 974.645 497.404 962.908z" transform="translate(-4 -279) rotate(128 486.404 959.645)"/>
        <path d="M377.146 305.183L355.146 293.447 355.146 299.974 371.028 308.446 355.146 316.919 355.146 323.447 377.146 311.71z" transform="translate(-4 -279) rotate(-52 366.146 308.447)"/>
        <path d="M529.437 486.979L507.437 475.242 507.437 481.77 523.318 490.242 507.437 498.715 507.437 505.242 529.437 493.506z" transform="translate(-4 -279) rotate(38 518.437 490.242)"/>
        <path d="M596.698 698.357L574.698 686.621 574.698 693.148 590.58 701.62 574.698 710.093 574.698 716.621 596.698 704.884z" transform="translate(-4 -279) rotate(-52 585.698 701.62)"/>
        <path d="M645.98 566.367L623.98 554.631 623.98 561.158 639.862 569.631 623.98 578.103 623.98 584.631 645.98 572.894z" transform="translate(-4 -279) rotate(-52 634.98 569.63)"/>
        <path d="M296.933 685.796L274.933 674.059 274.933 680.587 290.815 689.059 274.933 697.532 274.933 704.059 296.933 692.323z" transform="translate(-4 -279) rotate(38 285.933 689.06)"/>
        <path d="M227.191 815.26L205.191 803.524 205.191 810.051 221.073 818.523 205.191 826.996 205.191 833.524 227.191 821.787z" transform="translate(-4 -279) rotate(38 216.191 818.524)"/>
        <path d="M391.881 942.135L369.881 930.399 369.881 936.926 385.763 945.398 369.881 953.871 369.881 960.399 391.881 948.662z" transform="translate(-4 -279) rotate(38 380.88 945.399)"/>
        <path d="M432.674 1175.906L410.674 1164.17 410.674 1170.697 426.556 1179.169 410.674 1187.642 410.674 1194.17 432.674 1182.433z" transform="translate(-4 -279) rotate(-52 421.674 1179.17)"/>
        <path d="M610.481 1089.594L588.481 1077.857 588.481 1084.385 604.363 1092.857 588.481 1101.33 588.481 1107.857 610.481 1096.121z" transform="translate(-4 -279) rotate(-52 599.48 1092.857)"/>
        <path d="M547.851 858.504L525.851 846.767 525.851 853.295 541.733 861.767 525.851 870.24 525.851 876.767 547.851 865.031z" transform="translate(-4 -279) rotate(-52 536.851 861.767)"/>
        <path d="M425.181 630.756L403.181 619.019 403.181 625.547 419.063 634.019 403.181 642.492 403.181 649.019 425.181 637.283z" transform="translate(-4 -279) rotate(-52 414.181 634.02)"/>
        <path d="M130.457 310.978c-.162 1.317.5 2.628 1.692 3.142l12.817 5.553c1.43.623 3.07-.132 3.675-1.683.594-1.556-.07-3.305-1.495-3.922l-12.82-5.559c-1.43-.617-3.07.135-3.671 1.684-.103.26-.166.521-.198.785M635.574 346.686c-.162 1.316.5 2.628 1.692 3.142l12.817 5.553c1.43.623 3.07-.132 3.675-1.683.594-1.556-.071-3.306-1.495-3.922l-12.82-5.559c-1.43-.617-3.07.135-3.671 1.683-.103.262-.166.522-.198.786M582.582 530.514c-.162 1.317.5 2.628 1.692 3.143l12.817 5.552c1.43.623 3.07-.131 3.675-1.683.594-1.555-.071-3.305-1.495-3.922l-12.82-5.558c-1.43-.617-3.07.134-3.671 1.683-.103.261-.166.521-.198.785M594.627 751.695c-.162 1.316.5 2.628 1.692 3.142l12.817 5.553c1.43.623 3.07-.132 3.675-1.683.594-1.556-.071-3.306-1.495-3.922l-12.82-5.559c-1.43-.617-3.07.135-3.671 1.683-.103.262-.166.522-.198.786M10.404 396.13c1.221-.519 2.025-1.748 1.875-3.037l-1.6-13.876c-.175-1.55-1.648-2.593-3.294-2.341-1.645.263-2.828 1.714-2.65 3.255l1.596 13.882c.181 1.546 1.652 2.591 3.294 2.338.278-.042.534-.118.78-.221M646.147 958.22c-.602 1.182-.428 2.64.515 3.532l10.146 9.601c1.13 1.074 2.929.926 4.028-.325 1.09-1.258 1.064-3.13-.063-4.196l-10.145-9.608c-1.133-1.069-2.931-.924-4.026.326-.186.21-.334.433-.455.67M230.757 274.482c-.162 1.317.5 2.628 1.692 3.143l12.817 5.552c1.43.623 3.07-.131 3.675-1.683.594-1.555-.07-3.305-1.495-3.921l-12.82-5.56c-1.43-.616-3.07.135-3.671 1.684-.103.261-.166.522-.198.785M332.127 407.002c1.221-.518 2.026-1.747 1.876-3.036l-1.6-13.877c-.176-1.549-1.65-2.592-3.295-2.34-1.644.263-2.828 1.714-2.65 3.255l1.597 13.882c.18 1.546 1.65 2.59 3.293 2.338.278-.042.534-.118.78-.222M315.972 443.622c-.602 1.182-.428 2.64.516 3.532l10.145 9.601c1.13 1.075 2.93.927 4.028-.324 1.09-1.259 1.065-3.13-.063-4.197l-10.145-9.608c-1.133-1.069-2.93-.923-4.026.326-.186.21-.334.433-.455.67M55.449 750.66c-.602 1.183-.428 2.641.515 3.532l10.146 9.602c1.13 1.074 2.929.926 4.028-.325 1.09-1.258 1.064-3.13-.063-4.196l-10.146-9.608c-1.132-1.07-2.93-.924-4.025.325-.186.211-.334.434-.455.67M431.907 487.23c1.06.798 2.526.88 3.568.105l11.217-8.324c1.254-.926 1.42-2.724.38-4.023-1.05-1.293-2.898-1.592-4.144-.667l-11.224 8.323c-1.249.93-1.418 2.726-.378 4.021.175.22.369.404.581.564M192.84 654.94c-.161 1.316.5 2.627 1.692 3.142l12.818 5.552c1.429.623 3.07-.131 3.674-1.683.594-1.555-.07-3.305-1.495-3.922l-12.82-5.558c-1.429-.617-3.07.134-3.67 1.683-.103.261-.166.521-.199.785M271.472 885.072c-.161 1.316.501 2.627 1.692 3.142l12.818 5.553c1.429.623 3.07-.132 3.674-1.683.594-1.556-.07-3.306-1.495-3.922l-12.819-5.559c-1.43-.617-3.07.135-3.672 1.683-.102.262-.165.522-.198.786M71.185 985.227c-.161 1.317.5 2.628 1.692 3.142l12.818 5.553c1.429.623 3.07-.132 3.674-1.683.594-1.556-.07-3.305-1.495-3.922l-12.819-5.558c-1.43-.617-3.07.134-3.672 1.683-.102.261-.165.521-.198.785M322.821 749.69c1.221-.517 2.025-1.746 1.875-3.036l-1.6-13.876c-.175-1.55-1.648-2.593-3.294-2.34-1.645.262-2.828 1.713-2.65 3.255l1.596 13.881c.181 1.547 1.652 2.591 3.294 2.338.278-.042.534-.117.78-.221M346.628 832.787c-.602 1.182-.428 2.64.515 3.532l10.146 9.601c1.13 1.074 2.93.926 4.028-.324 1.09-1.259 1.064-3.13-.063-4.197l-10.145-9.608c-1.133-1.069-2.931-.924-4.026.326-.186.21-.334.433-.455.67M189.125 936.757c-.602 1.182-.429 2.64.515 3.532l10.145 9.601c1.13 1.074 2.93.926 4.029-.325 1.09-1.258 1.064-3.13-.064-4.196l-10.145-9.608c-1.132-1.069-2.93-.924-4.026.326-.185.21-.334.433-.454.67M536.526 1199.79c1.06.8 2.526.881 3.568.107l11.217-8.324c1.254-.926 1.421-2.724.38-4.024-1.05-1.292-2.898-1.591-4.144-.666l-11.224 8.322c-1.249.93-1.418 2.726-.378 4.022.175.22.37.404.581.564M110.222 1141.308c1.059.799 2.526.88 3.567.106l11.217-8.324c1.254-.926 1.421-2.724.38-4.023-1.05-1.293-2.898-1.592-4.144-.667l-11.223 8.323c-1.25.93-1.419 2.726-.379 4.021.175.22.37.404.582.564" transform="translate(-4 -279)"/>
        <path d="M313.31 1081.751L291.31 1070.015 291.31 1076.542 307.192 1085.014 291.31 1093.487 291.31 1100.015 313.31 1088.278z" transform="translate(-4 -279) rotate(68 302.31 1085.015)"/>
        <path d="M326.198 1013.031c1.06.799 2.526.88 3.568.106l11.217-8.324c1.254-.926 1.421-2.724.38-4.023-1.05-1.293-2.898-1.592-4.144-.667l-11.224 8.323c-1.249.93-1.418 2.726-.378 4.021.175.22.37.404.581.564M479.659 424.25c1.181.602 2.64.428 3.531-.516l9.602-10.145c1.074-1.13.926-2.93-.325-4.028-1.259-1.09-3.13-1.064-4.197.063l-9.608 10.145c-1.068 1.133-.923 2.931.326 4.026.21.186.434.334.67.455M613.635 415.86c1.182.602 2.64.428 3.531-.516l9.602-10.145c1.074-1.13.926-2.93-.325-4.028-1.259-1.09-3.13-1.065-4.196.063l-9.609 10.145c-1.068 1.133-.923 2.93.326 4.026.21.186.434.334.67.455M500.635 538.234c1.06.798 2.526.88 3.568.106l11.217-8.324c1.254-.926 1.421-2.724.38-4.024-1.05-1.292-2.898-1.592-4.144-.666l-11.224 8.322c-1.249.93-1.418 2.726-.378 4.022.175.22.369.404.581.564M513.066 639.473c1.06.799 2.526.88 3.567.106l11.218-8.324c1.254-.926 1.42-2.724.38-4.023-1.05-1.293-2.898-1.592-4.144-.667l-11.224 8.323c-1.25.93-1.418 2.726-.378 4.021.175.22.369.404.581.564M500.595 784.071c1.06.798 2.526.88 3.567.106l11.218-8.324c1.254-.926 1.42-2.724.38-4.024-1.05-1.292-2.898-1.591-4.144-.666l-11.224 8.323c-1.25.93-1.418 2.726-.378 4.021.175.22.369.404.581.564M567.79 912.842c1.059.798 2.525.88 3.567.106l11.217-8.324c1.254-.926 1.42-2.724.38-4.024-1.05-1.292-2.898-1.591-4.144-.666l-11.224 8.323c-1.25.93-1.418 2.725-.378 4.02.175.22.369.405.581.565M176.388 490.393c1.06.798 2.526.88 3.568.106l11.217-8.324c1.254-.926 1.42-2.724.38-4.024-1.05-1.292-2.898-1.591-4.144-.666l-11.224 8.323c-1.25.93-1.418 2.725-.378 4.02.175.22.369.405.581.565" transform="translate(-4 -279)"/>
    </g>
</svg>
