<svg xmlns="http://www.w3.org/2000/svg" xmlns:xlink="http://www.w3.org/1999/xlink" width="372" height="212" viewBox="0 0 372 212">
    <defs>
        <filter id="prefix__a" width="104.4%" height="154.9%" x="-2.3%" y="-14.7%" filterUnits="objectBoundingBox">
            <feOffset in="SourceAlpha" result="shadowOffsetOuter1"/>
            <feGaussianBlur in="shadowOffsetOuter1" result="shadowBlurOuter1" stdDeviation="2.5"/>
            <feColorMatrix in="shadowBlurOuter1" values="0 0 0 0 0 0 0 0 0 0 0 0 0 0 0 0 0 0 0.3 0"/>
        </filter>
        <text id="prefix__b" fill="#000" font-family="NotoSansCJKkr-Black, Noto Sans CJK KR" font-size="59.139" font-weight="700">
            <tspan x="2.172" y="219.535">Anniversary</tspan>
        </text>
    </defs>
    <g fill="none" fill-rule="evenodd">
        <path fill="#000" fill-rule="nonzero" d="M131.478 78.404H235.419V137.543H131.478z" transform="translate(3 -7)"/>
        <path fill="#FED925" fill-rule="nonzero" d="M0 202H358V209.518H0z" transform="translate(3 -7)"/>
        <text fill="#000" font-family="NotoSansCJKkr-Black, Noto Sans CJK KR" font-size="59.139" font-weight="700" transform="translate(3 -7)">
            <tspan x="86.172" y="69">Happy</tspan>
        </text>
        <g fill="#000" transform="translate(3 -7)">
            <use filter="url(#prefix__a)" xlink:href="#prefix__b"/>
            <use xlink:href="#prefix__b"/>
        </g>
        <text fill="#FFF" font-family="NotoSansCJKkr-Black, Noto Sans CJK KR" font-size="59.139" font-weight="700" transform="translate(3 -7)">
            <tspan x="132.448" y="146.06">1th</tspan>
        </text>
        <g transform="translate(3 -7) translate(47.698 60.483)">
            <path fill="#FED925" d="M19.694 47.195c.433-.143.91-.032 1.237.288l5.624 5.495 8.018-1.676c.657-.137 1.302.286 1.44.943.058.278.019.567-.114.817l-3.82 7.246 3.732 6.92c.318.593.1 1.33-.491 1.648-.224.122-.48.169-.732.136l-8.03-1.042-5.732 5.997c-.463.485-1.234.5-1.72.036-.196-.189-.323-.436-.362-.706l-1.123-7.845-7.232-3.242c-.614-.274-.89-.995-.618-1.607.111-.25.303-.454.545-.582l7.344-3.857 1.216-8.003c.07-.45.385-.823.818-.966"/>
            <ellipse cx="54.935" cy="22.052" fill-rule="nonzero" stroke="#FED925" stroke-width="2.01" rx="3.35" ry="3.341"/>
            <ellipse cx="12.059" cy="3.341" fill-rule="nonzero" stroke="#FED925" stroke-width="2.01" rx="3.35" ry="3.341"/>
            <ellipse cx="3.35" cy="38.758" fill-rule="nonzero" stroke="#FED925" stroke-width="2.01" rx="3.35" ry="3.341"/>
            <path fill="#FED925" d="M18.25 30.416c.01-.24.155-.453.373-.553l3.754-1.724.687-4.246c.056-.349.385-.585.733-.53.148.025.282.098.38.21l2.834 3.238 4.096-.528c.35-.044.67.202.715.551.018.133-.008.268-.071.385l-2.022 3.741 1.861 3.94c.15.318.013.699-.306.85-.13.06-.274.076-.414.045l-4.059-.927-2.95 2.937c-.25.25-.656.249-.905 0-.102-.102-.165-.234-.182-.377l-.51-4.327-3.695-2.102c-.207-.12-.331-.344-.32-.583"/>
            <path fill-rule="nonzero" stroke="#FED925" stroke-linecap="round" stroke-width="2.01" d="M71.683 60.203C65.431 43.275 52.702 33.697 33.497 31.47M67.651 69.002c-8.032-8.46-18.078-11.564-30.136-9.31"/>
        </g>
        <g transform="translate(3 -7) matrix(-1 0 0 1 314.718 64.067)">
            <path fill="#FED925" d="M18.463 44.245c.406-.134.854-.03 1.16.27l5.273 5.152 7.516-1.571c.616-.129 1.22.268 1.35.883.055.261.018.532-.106.767l-3.582 6.793 3.499 6.488c.298.555.093 1.246-.46 1.545-.21.113-.451.157-.687.126l-7.528-.976-5.373 5.622c-.435.455-1.158.469-1.612.034-.185-.177-.304-.409-.34-.662l-1.053-7.355-6.78-3.04c-.576-.256-.835-.932-.58-1.506.105-.234.284-.426.511-.545l6.886-3.616 1.139-7.503c.066-.422.361-.772.767-.906"/>
            <ellipse cx="51.501" cy="20.673" fill-rule="nonzero" stroke="#FED925" stroke-width="1.884" rx="3.14" ry="3.132"/>
            <ellipse cx="11.305" cy="3.132" fill-rule="nonzero" stroke="#FED925" stroke-width="1.884" rx="3.14" ry="3.132"/>
            <ellipse cx="3.14" cy="36.335" fill-rule="nonzero" stroke="#FED925" stroke-width="1.884" rx="3.14" ry="3.132"/>
            <path fill="#FED925" d="M17.109 28.515c.01-.225.146-.425.35-.518l3.519-1.616.644-3.982c.053-.326.362-.548.688-.496.138.023.264.092.356.197l2.657 3.035 3.84-.494c.328-.042.628.189.67.516.017.124-.007.25-.067.36l-1.895 3.508 1.745 3.693c.141.3.012.656-.287.797-.121.057-.258.072-.388.042l-3.805-.868-2.767 2.753c-.234.234-.614.233-.848 0-.095-.095-.155-.22-.17-.353l-.478-4.057-3.465-1.97c-.194-.113-.31-.323-.3-.547"/>
            <path fill-rule="nonzero" stroke="#FED925" stroke-linecap="round" stroke-width="1.884" d="M67.203 56.44c-5.862-15.87-17.795-24.85-35.8-26.938M63.423 64.69c-7.53-7.933-16.948-10.842-28.253-8.729"/>
        </g>
    </g>
</svg>
